<svg viewBox="0 0 512 512" xmlns="http://www.w3.org/2000/svg">
  <defs>
    <linearGradient id="clipboardGradient" x1="0%" y1="0%" x2="0%" y2="100%">
      <stop offset="0%" style="stop-color:#4a5568;stop-opacity:1" />
      <stop offset="100%" style="stop-color:#2d3748;stop-opacity:1" />
    </linearGradient>
    <linearGradient id="paperGradient" x1="0%" y1="0%" x2="0%" y2="100%">
      <stop offset="0%" style="stop-color:#ffffff;stop-opacity:1" />
      <stop offset="100%" style="stop-color:#f7fafc;stop-opacity:1" />
    </linearGradient>
    <linearGradient id="clipGradient" x1="0%" y1="0%" x2="0%" y2="100%">
      <stop offset="0%" style="stop-color:#3182ce;stop-opacity:1" />
      <stop offset="100%" style="stop-color:#2c5aa0;stop-opacity:1" />
    </linearGradient>
    <filter id="shadow" x="-50%" y="-50%" width="200%" height="200%">
      <feDropShadow dx="0" dy="8" flood-opacity="0.15" stdDeviation="12"/>
    </filter>
  </defs>
  
  <!-- Main clipboard body -->
  <rect x="128" y="96" width="256" height="320" rx="24" 
        fill="url(#clipboardGradient)" 
        stroke="#1a202c" 
        stroke-width="3" 
        filter="url(#shadow)"/>
  
  <!-- Paper/content area -->
  <rect x="160" y="160" width="192" height="224" rx="8" 
        fill="url(#paperGradient)" 
        stroke="#e2e8f0" 
        stroke-width="2"/>
  
  <!-- Clipboard clip at top -->
  <rect x="208" y="64" width="96" height="48" rx="24" 
        fill="url(#clipGradient)" 
        stroke="#2c5aa0" 
        stroke-width="2"
        filter="url(#shadow)"/>
  
  <!-- Content lines on paper -->
  <g opacity="0.6">
    <rect x="184" y="200" width="144" height="3" rx="1.5" fill="#cbd5e0"/>
    <rect x="184" y="232" width="120" height="3" rx="1.5" fill="#cbd5e0"/>
    <rect x="184" y="264" width="136" height="3" rx="1.5" fill="#cbd5e0"/>
    <rect x="184" y="296" width="104" height="3" rx="1.5" fill="#cbd5e0"/>
    <rect x="184" y="328" width="128" height="3" rx="1.5" fill="#cbd5e0"/>
  </g>
  
  <!-- Small accent elements to suggest "stored items" -->
  <g opacity="0.3">
    <rect x="144" y="176" width="8" height="8" rx="2" fill="#3182ce"/>
    <rect x="144" y="200" width="8" height="8" rx="2" fill="#3182ce"/>
    <rect x="144" y="224" width="8" height="8" rx="2" fill="#3182ce"/>
  </g>
</svg>